<?xml version="1.0" encoding="UTF-8" standalone="no"?>
<!DOCTYPE svg PUBLIC "-//W3C//DTD SVG 1.1//EN"
 "http://www.w3.org/Graphics/SVG/1.1/DTD/svg11.dtd">
<!-- Generated by graphviz version 2.43.0 (0)
 -->
<!-- Title: %3 Pages: 1 -->
<svg width="335pt" height="317pt"
 viewBox="0.00 0.00 335.29 316.79" xmlns="http://www.w3.org/2000/svg" xmlns:xlink="http://www.w3.org/1999/xlink">
<g id="graph0" class="graph" transform="scale(1 1) rotate(0) translate(4 312.79)">
<title>%3</title>
<polygon fill="white" stroke="transparent" points="-4,4 -4,-312.79 331.29,-312.79 331.29,4 -4,4"/>
<!-- Cart Position -->
<g id="node1" class="node">
<title>Cart Position</title>
<polygon fill="lightgray" stroke="black" points="63.38,-172.07 -0.13,-172.07 -0.13,-155.07 63.38,-155.07 63.38,-172.07"/>
<text text-anchor="middle" x="31.63" y="-160.87" font-family="Times,serif" font-size="9.00">Cart Position</text>
</g>
<!-- 0 -->
<g id="node5" class="node">
<title>0</title>
<ellipse fill="lightblue" stroke="black" cx="167.63" cy="-14.5" rx="14.49" ry="14.49"/>
<text text-anchor="middle" x="167.63" y="-11.8" font-family="Times,serif" font-size="9.00">0</text>
</g>
<!-- Cart Position&#45;&gt;0 -->
<g id="edge1" class="edge">
<title>Cart Position&#45;&gt;0</title>
<path fill="none" stroke="green" stroke-width="0.5" stroke-dasharray="1,5" d="M28.92,-154.86C23.23,-137.13 12.1,-92.88 31.63,-64.99 56.77,-29.09 110.79,-19.13 142.66,-16.43"/>
<polygon fill="green" stroke="green" stroke-width="0.5" points="143.18,-19.91 152.93,-15.75 142.72,-12.92 143.18,-19.91"/>
</g>
<!-- 841 -->
<g id="node7" class="node">
<title>841</title>
<ellipse fill="white" stroke="black" cx="61.63" cy="-85.85" rx="20.72" ry="20.72"/>
<text text-anchor="middle" x="61.63" y="-83.15" font-family="Times,serif" font-size="9.00">841</text>
</g>
<!-- Cart Position&#45;&gt;841 -->
<g id="edge11" class="edge">
<title>Cart Position&#45;&gt;841</title>
<path fill="none" stroke="green" stroke-width="0.5" d="M34.61,-155.03C38.3,-145.73 44.77,-129.39 50.46,-115.03"/>
<polygon fill="green" stroke="green" stroke-width="0.5" points="53.8,-116.11 54.23,-105.52 47.29,-113.53 53.8,-116.11"/>
</g>
<!-- Cart Velocity -->
<g id="node2" class="node">
<title>Cart Velocity</title>
<polygon fill="lightgray" stroke="black" points="137.21,-308.79 74.05,-308.79 74.05,-291.79 137.21,-291.79 137.21,-308.79"/>
<text text-anchor="middle" x="105.63" y="-297.59" font-family="Times,serif" font-size="9.00">Cart Velocity</text>
</g>
<!-- Cart Velocity&#45;&gt;0 -->
<g id="edge2" class="edge">
<title>Cart Velocity&#45;&gt;0</title>
<path fill="none" stroke="green" stroke-width="0.5" d="M107.09,-291.57C112.73,-262.06 133.75,-153.57 154.63,-64.99 156.66,-56.36 159.09,-46.93 161.29,-38.64"/>
<polygon fill="green" stroke="green" stroke-width="0.5" points="164.69,-39.46 163.91,-28.89 157.93,-37.64 164.69,-39.46"/>
</g>
<!-- 67 -->
<g id="node6" class="node">
<title>67</title>
<ellipse fill="white" stroke="black" cx="199.63" cy="-238.11" rx="17.86" ry="17.86"/>
<text text-anchor="middle" x="199.63" y="-235.41" font-family="Times,serif" font-size="9.00">67</text>
</g>
<!-- Cart Velocity&#45;&gt;67 -->
<g id="edge8" class="edge">
<title>Cart Velocity&#45;&gt;67</title>
<path fill="none" stroke="green" stroke-width="0.5" d="M117.53,-291.66C132.31,-282.21 157.83,-265.87 176.51,-253.91"/>
<polygon fill="green" stroke="green" stroke-width="0.5" points="178.51,-256.78 185.05,-248.44 174.74,-250.89 178.51,-256.78"/>
</g>
<!-- Pole Angle -->
<g id="node3" class="node">
<title>Pole Angle</title>
<polygon fill="lightgray" stroke="black" points="317.38,-308.79 261.87,-308.79 261.87,-291.79 317.38,-291.79 317.38,-308.79"/>
<text text-anchor="middle" x="289.63" y="-297.59" font-family="Times,serif" font-size="9.00">Pole Angle</text>
</g>
<!-- Pole Angle&#45;&gt;0 -->
<g id="edge3" class="edge">
<title>Pole Angle&#45;&gt;0</title>
<path fill="none" stroke="green" stroke-width="0.5" stroke-dasharray="1,5" d="M293.24,-291.48C307.32,-259.77 355.28,-138.76 303.63,-64.99 278.49,-29.09 224.47,-19.13 192.59,-16.43"/>
<polygon fill="green" stroke="green" stroke-width="0.5" points="192.54,-12.92 182.33,-15.75 192.07,-19.91 192.54,-12.92"/>
</g>
<!-- Pole Angle&#45;&gt;67 -->
<g id="edge5" class="edge">
<title>Pole Angle&#45;&gt;67</title>
<path fill="none" stroke="green" stroke-width="0.5" d="M278.23,-291.66C264.29,-282.35 240.37,-266.35 222.56,-254.44"/>
<polygon fill="green" stroke="green" stroke-width="0.5" points="224.15,-251.3 213.9,-248.65 220.26,-257.12 224.15,-251.3"/>
</g>
<!-- 827 -->
<g id="node9" class="node">
<title>827</title>
<ellipse fill="white" stroke="black" cx="254.63" cy="-163.57" rx="20.72" ry="20.72"/>
<text text-anchor="middle" x="254.63" y="-160.87" font-family="Times,serif" font-size="9.00">827</text>
</g>
<!-- Pole Angle&#45;&gt;827 -->
<g id="edge9" class="edge">
<title>Pole Angle&#45;&gt;827</title>
<path fill="none" stroke="green" stroke-width="0.5" d="M287.65,-291.66C282.86,-273.25 270.49,-225.62 262.32,-194.19"/>
<polygon fill="green" stroke="green" stroke-width="0.5" points="265.63,-193.01 259.73,-184.21 258.86,-194.77 265.63,-193.01"/>
</g>
<!-- Pole Velocity At Tip -->
<g id="node4" class="node">
<title>Pole Velocity At Tip</title>
<polygon fill="lightgray" stroke="black" points="244.25,-308.79 155.01,-308.79 155.01,-291.79 244.25,-291.79 244.25,-308.79"/>
<text text-anchor="middle" x="199.63" y="-297.59" font-family="Times,serif" font-size="9.00">Pole Velocity At Tip</text>
</g>
<!-- Pole Velocity At Tip&#45;&gt;0 -->
<g id="edge4" class="edge">
<title>Pole Velocity At Tip&#45;&gt;0</title>
<path fill="none" stroke="green" stroke-width="0.5" d="M193.03,-291.58C186.44,-283.34 176.72,-269.59 172.63,-255.79 149.89,-179.07 158.41,-82.47 164.12,-38.81"/>
<polygon fill="green" stroke="green" stroke-width="0.5" points="167.59,-39.28 165.49,-28.89 160.65,-38.32 167.59,-39.28"/>
</g>
<!-- Pole Velocity At Tip&#45;&gt;67 -->
<g id="edge7" class="edge">
<title>Pole Velocity At Tip&#45;&gt;67</title>
<path fill="none" stroke="green" stroke-width="0.5" d="M199.63,-291.66C199.63,-285.23 199.63,-275.61 199.63,-266.35"/>
<polygon fill="green" stroke="green" stroke-width="0.5" points="203.13,-266.25 199.63,-256.25 196.13,-266.25 203.13,-266.25"/>
</g>
<!-- 67&#45;&gt;0 -->
<g id="edge6" class="edge">
<title>67&#45;&gt;0</title>
<path fill="none" stroke="green" stroke-width="0.5" d="M197.22,-220.45C191.58,-181.39 177.49,-83.83 171,-38.86"/>
<polygon fill="green" stroke="green" stroke-width="0.5" points="174.45,-38.27 169.56,-28.87 167.52,-39.27 174.45,-38.27"/>
</g>
<!-- 67&#45;&gt;827 -->
<g id="edge13" class="edge">
<title>67&#45;&gt;827</title>
<path fill="none" stroke="green" stroke-width="0.5" d="M209.97,-223.46C217.38,-213.69 227.56,-200.26 236.33,-188.7"/>
<polygon fill="green" stroke="green" stroke-width="0.5" points="239.16,-190.77 242.41,-180.69 233.58,-186.54 239.16,-190.77"/>
</g>
<!-- 841&#45;&gt;0 -->
<g id="edge12" class="edge">
<title>841&#45;&gt;0</title>
<path fill="none" stroke="green" stroke-width="0.5" d="M78.66,-73.71C97.35,-61.48 127.35,-41.85 147.27,-28.82"/>
<polygon fill="green" stroke="green" stroke-width="0.5" points="149.44,-31.58 155.89,-23.18 145.61,-25.72 149.44,-31.58"/>
</g>
<!-- 943 -->
<g id="node8" class="node">
<title>943</title>
<ellipse fill="white" stroke="black" cx="273.63" cy="-85.85" rx="20.72" ry="20.72"/>
<text text-anchor="middle" x="273.63" y="-83.15" font-family="Times,serif" font-size="9.00">943</text>
</g>
<!-- 943&#45;&gt;0 -->
<g id="edge15" class="edge">
<title>943&#45;&gt;0</title>
<path fill="none" stroke="green" stroke-width="0.5" d="M256.6,-73.71C237.9,-61.48 207.91,-41.85 187.99,-28.82"/>
<polygon fill="green" stroke="green" stroke-width="0.5" points="189.65,-25.72 179.36,-23.18 185.82,-31.58 189.65,-25.72"/>
</g>
<!-- 827&#45;&gt;0 -->
<g id="edge10" class="edge">
<title>827&#45;&gt;0</title>
<path fill="none" stroke="green" stroke-width="0.5" stroke-dasharray="1,5" d="M245.3,-144.69C234.87,-124.93 217.24,-92.28 200.63,-64.99 194.51,-54.93 187.29,-44.02 181.17,-35"/>
<polygon fill="green" stroke="green" stroke-width="0.5" points="184.04,-33 175.5,-26.73 178.27,-36.95 184.04,-33"/>
</g>
<!-- 827&#45;&gt;943 -->
<g id="edge14" class="edge">
<title>827&#45;&gt;943</title>
<path fill="none" stroke="green" stroke-width="0.5" d="M259.52,-143.07C261.58,-134.86 264.02,-125.12 266.29,-116.08"/>
<polygon fill="green" stroke="green" stroke-width="0.5" points="269.71,-116.84 268.75,-106.28 262.92,-115.13 269.71,-116.84"/>
</g>
</g>
</svg>
